<?xml version="1.0" encoding="utf-8"?>
<!-- Generator: Adobe Illustrator 27.5.0, SVG Export Plug-In . SVG Version: 6.00 Build 0)  -->
<svg version="1.1" xmlns="http://www.w3.org/2000/svg" xmlns:xlink="http://www.w3.org/1999/xlink" x="0px" y="0px"
	 viewBox="45 165 275 260" style="enable-background:new 0 0 1037.553 500;" xml:space="preserve">
	<g>
		<g>
			<g>
				<path style="fill:#B3AC9D;" d="M246.55,208.221c1.523-4.747,2.056-9.835,1.197-14.767c-1.462-8.393-6.97-16.123-15.037-19.301
					c-3.89-1.533-8.164-1.889-12.247-0.97c-2.004,0.451-3.945,1.165-5.739,2.168c-1.442,0.807-2.715,1.82-3.963,2.88
					c6.411,2.759,12.428,6.351,17.904,10.745C235.527,194.482,241.406,201.104,246.55,208.221z"/>
				<path style="fill:#B3AC9D;" d="M78.876,235.614c4.749-12.256,11.74-23.638,20.816-33.167c2.014-2.114,4.142-4.125,6.348-6.048
					c-1.011-0.366-1.997-0.854-3.013-1.189c-1.462-0.482-2.961-0.853-4.479-1.111c-2.835-0.481-5.801-0.535-8.65-0.129
					c-9.548,1.36-17.844,8.276-20.402,17.664c-1.228,4.504-0.866,9.239,0.83,13.574c0.81,2.071,1.986,4.058,3.397,5.777
					C75.216,232.805,77.008,234.206,78.876,235.614z"/>
				<path style="fill:#B3AC9D;" d="M92.983,348.211c-5.755-1.249-11.091,4.504-9.89,10.131c0.669,3.135,2.743,5.78,5.449,7.443
					c1.41,0.866,2.924,1.499,4.518,1.937c1.223,0.336,2.798,0.384,4.046,0.876c0.115-1.355,0.284-2.704,0.503-4.037
					c0.528-3.218,1.39-6.415,2.534-9.526c-0.187-0.178-0.34-0.409-0.43-0.715C98.8,351.209,96.129,348.893,92.983,348.211z"/>
				<path style="fill:#B3AC9D;" d="M260.598,362.39c-4.363-1.785-8.592,1.091-12.25,3.152c-0.92,0.518-1.762,0.119-2.175-0.558
					c-0.652-0.061-1.304-0.132-1.956-0.197c-0.71-0.072-1.419-0.143-2.129-0.215c-0.368-0.037-0.736-0.074-1.104-0.112
					c-0.154-0.016-0.327-0.029-0.494-0.05c1.46,4.195,2.261,8.587,1.688,13.049c-0.723,5.633-3.425,10.761-7.171,14.969
					c0.063,0.012,0.128,0.027,0.196,0.052c4.814,1.751,9.975,2.535,14.941,0.908c3.754-1.23,7.158-3.741,9.423-6.981
					c2.683-3.838,3.565-8.425,4.003-13.007C263.926,369.689,264.935,364.164,260.598,362.39z"/>
				<path style="fill:#FFF8F5;" d="M243.07,361.473c-0.27-0.034-0.549-0.076-0.828-0.11c-0.363-0.051-0.735-0.093-1.098-0.144
					c-0.152-0.025-0.321-0.059-0.473-0.068c-0.498-0.017-0.87,0.237-1.225,0.541c-0.659-1.571-1.385-3.117-2.154-4.611
					c-1.799-3.539-3.843-6.96-6.098-10.228c-2.289-3.328-4.679-6.571-7.77-9.198c-0.768-0.65-2.044,0.177-1.461,1.123
					c0.253,0.414,0.507,0.819,0.769,1.225c1.537,2.39,3.235,4.645,4.831,7.01c1.875,2.762,3.615,5.617,5.211,8.547
					c3.167,5.845,6.242,12.213,6.233,19.004c-0.017,11.926-10.11,20.845-20.33,25.11c-3.387,1.411-6.917,2.466-10.481,3.353
					c-1.816,0.456-3.649,0.861-5.49,1.25c-1.25,0.262-2.568,0.439-3.826,0.752c0.372-1.301,0.693-2.618,1.005-3.91
					c0.448-1.79,0.828-3.623,1.048-5.465c1.275-0.296,2.382-1.444,3.176-2.407c0.988-1.208,1.74-2.601,2.179-4.105
					c0.887-3.074,0.304-6.275-1.377-8.961c-1.765-2.838-4.375-4.992-6.453-7.568c-2.094-2.593-3.725-5.6-4.831-8.742
					c-0.642-1.841-1.14-3.733-1.444-5.667c-0.296-1.884-0.693-3.902-0.735-5.794c-0.017-0.709-0.87-1.064-1.394-0.811
					c-0.194,0.093-0.346,0.279-0.389,0.566c-0.228,1.605-0.549,3.083-0.507,4.721c0.051,1.664,0.338,3.361,0.693,4.992
					c0.701,3.209,1.943,6.326,3.59,9.172c1.622,2.787,3.733,5.118,5.912,7.466c1.917,2.069,3.978,4.451,4.012,7.432
					c0.025,1.478-0.389,2.914-1.148,4.181c-0.194,0.329-0.414,0.625-0.659,0.912c-0.152,0.186-0.321,0.363-0.49,0.541
					c-0.008-0.16-0.025-0.321-0.042-0.481c-0.076-0.819-0.203-1.639-0.397-2.449c-0.853-3.463-3.024-6.664-6.335-8.159
					c-6.242-2.838-12.72-0.11-17.475,4.172c-0.144,0.127-0.287,0.253-0.431,0.388c0.042-0.186,0.042-0.38-0.008-0.6
					c-0.008-0.051-0.025-0.11-0.042-0.169c-0.667-2.145-1.841-4.155-2.644-6.259c-0.794-2.128-1.512-4.29-2.095-6.486
					c-0.574-2.137-1.022-4.307-1.368-6.495c-0.169-1.098-0.279-2.204-0.405-3.319c-0.127-1.174-0.22-2.314-1.115-3.176
					c-0.372-0.355-1.098-0.439-1.453,0c-0.633,0.777-0.836,1.765-0.828,2.796c0,1.301,0.321,2.686,0.49,3.835
					c0.346,2.373,0.828,4.73,1.444,7.052c0.6,2.255,1.318,4.493,2.187,6.664c0.861,2.145,1.715,4.654,3.134,6.503
					c0.439,0.574,1.174,0.735,1.773,0.566c-0.211,0.211-0.414,0.422-0.616,0.642c-1.259,1.385-2.407,2.863-3.53,4.358
					c-0.549,0.735-0.118,1.884,0.608,2.306c0.861,0.507,1.748,0.127,2.297-0.6c3.801-5.059,9.003-10.71,15.963-9.899
					c3.066,0.355,5.523,2.272,6.681,5.118c1.377,3.37,0.963,7.103,0.203,10.566c-0.735,3.319-1.478,6.883-2.99,9.958
					c-1.461,2.973-3.716,4.941-6.934,5.802c-3.497,0.946-7.298,0.937-10.887,0.887c-3.944-0.051-7.88-0.389-11.774-0.988
					c-7.973-1.216-15.777-3.37-23.429-5.878c-7.162-2.348-14.409-4.78-21.309-7.804c-6.022-2.635-11.934-6.157-15.431-11.909
					c-3.59-5.895-4.426-13.041-3.877-19.814c0.65-8.007,3.421-15.786,7.771-22.542c2.66-4.13,5.904-7.88,9.612-11.081
					c0.887-0.769,1.791-1.52,2.703-2.255c3.885,0.845,7.804,1.453,11.689,1.875c10.777,1.166,21.715,1.267,32.551,1.005
					c10.861-0.262,21.715-1.115,32.466-2.686c10.642-1.546,21.174-3.835,31.444-7.019c1.774-0.557,3.548-1.123,5.321-1.723
					c0.051,0.093,0.093,0.177,0.144,0.262c0.38,0.752,0.786,1.486,1.191,2.221c0.802,1.487,1.545,2.99,2.238,4.527
					c1.436,3.218,2.584,6.588,3.454,10c0.853,3.353,1.427,6.774,1.689,10.228c0.127,1.731,0.186,3.48,0.177,5.22
					C242.875,358.212,242.428,360.104,243.07,361.473z"/>
				<path style="fill:#FFF8F5;" d="M92.874,317.11c8.148,6.519,17.711,10.262,27.735,12.421c0.38-0.096,0.721-0.003,0.983,0.208
					c8.944,1.83,18.228,2.436,27.186,2.647c20.987,0.494,42.114-0.834,62.657-5.322c9.917-2.167,19.776-4.999,29.177-8.853
					c8.254-3.384,16.45-8.033,21.963-15.228c5.545-7.237,7.918-16.452,8.022-25.461c0.116-10.072-2.652-19.929-6.336-29.223
					c-3.491-8.808-7.698-17.415-12.412-25.632c-4.443-7.745-9.496-15.174-15.502-21.798c-6.002-6.619-12.923-12.38-20.793-16.65
					c-8.585-4.658-18.125-7.511-27.795-8.776c-13.175-1.724-26.427-0.508-39.301,2.494c-0.109,0.075-0.238,0.136-0.396,0.171
					c-4.296,0.968-8.368,2.394-12.481,3.941c-16.71,6.288-31.448,17.833-41.824,32.331c-11.074,15.473-17.528,34.14-18.889,53.09
					c-0.673,9.371-0.093,18.952,2.857,27.923C80.566,304.029,85.785,311.439,92.874,317.11z"/>
			</g>
			<path style="fill:#B3AC9D;" d="M163.371,280.36c-2.745,4.168-4.633,9.069-4.387,14.054c0.246,4.985,2.913,10.004,7.387,12.217
				c5.04,2.493,11.306,1.009,15.923-2.2c3.014-2.095,5.573-4.93,7-8.312c1.915-4.539,1.71-9.758,3.647-14.288
				c0.9-2.105,2.279-4.163,2.133-6.448c-0.407-6.366-9.339-10.055-14.638-8.251C173.461,269.504,167.419,274.212,163.371,280.36z"/>
			<path style="fill:#B3AC9D;" d="M229.612,273.939c2.926,5.198,3.443,12.027,8.145,15.698c2.487,1.942,5.828,2.613,8.954,2.179
				c3.126-0.434,6.044-1.898,8.544-3.823c3.412-2.628,6.236-6.437,6.411-10.74c0.092-2.253-0.547-4.482-1.455-6.546
				c-2.457-5.588-7.014-10.259-12.617-12.681c-5.377-2.324-13.879-2.852-19.452-0.528
				C220.409,260.724,227.206,269.664,229.612,273.939z"/>
			<path style="fill:#E0DAD7;" d="M214.594,269.122c-0.788-0.51-1.681-0.387-2.552-0.23c-0.684,0.124-1.357,0.277-2.025,0.467
				c-1.417,0.401-2.74,1.014-4.042,1.697c-1.046,0.549-0.327,2.245,0.803,1.906c1.301-0.39,2.637-0.677,3.959-0.987
				c0.651-0.152,1.308-0.293,1.964-0.419c0.775-0.149,1.528-0.313,2.086-0.923C215.22,270.162,215.129,269.468,214.594,269.122z"/>
			<path style="fill:#E0DAD7;" d="M113.49,326.368c-9.917-4.79-18.475-12.024-24.97-20.83c-3.383-5.823-5.665-12.296-6.648-19.056
				c-1.206-8.294-0.697-16.767,0.074-25.076c0.714-7.701,1.716-15.399,3.499-22.934c0.7-2.96,1.542-5.868,2.501-8.733
				c0.99-2.499,2.05-4.971,3.195-7.405c0.209-0.444,0.225-0.865,0.12-1.231c1.008-2.329,2.085-4.633,3.246-6.904
				c0.348-0.682-0.6-1.55-1.13-0.872c-1.194,1.53-2.401,3.076-3.346,4.771c-0.361,0.648-0.7,1.307-1.04,1.966
				c-0.249,0.126-0.484,0.322-0.681,0.616c-9.552,14.303-14.759,31.478-14.638,48.686c0.024,3.487,0.287,6.985,0.769,10.453
				c-0.322,0.278-0.56,0.666-0.609,1.14c-1.386,13.298,6.7,24.893,15.997,33.586c0.254,0.284,0.495,0.577,0.756,0.856
				c5.934,6.343,13.369,11.271,21.65,13.947C113.966,329.907,115.167,327.179,113.49,326.368z"/>
			<path style="fill:#B3AC9D;" d="M243.07,361.473c-0.27-0.034-0.549-0.076-0.828-0.11c-0.363-0.051-0.735-0.093-1.098-0.144
				c-0.152-0.025-0.321-0.059-0.473-0.068c-0.498-0.017-0.87,0.237-1.225,0.541c-0.659-1.571-1.385-3.117-2.154-4.611
				c-1.799-3.539-3.843-6.96-6.098-10.228c-2.289-3.328-4.679-6.571-7.77-9.198c-0.768-0.65-2.044,0.177-1.461,1.123
				c0.253,0.414,0.507,0.819,0.769,1.225c-2.677-1.639-5.608-2.821-8.733-3.378c-10.076-1.816-21.613,4.316-23.818,14.316
				c-0.051,0.22-0.093,0.439-0.127,0.659c-0.921,5.068,0.465,10.355,2.745,14.992c2.382,4.84,5.71,9.138,8.691,13.632
				c1.444,2.171,2.863,4.586,2.703,7.196c-0.093,1.596-1.208,3.294-2.635,3.623c-0.169,0.042-0.355,0.068-0.532,0.059
				c-0.186,0-0.38-0.025-0.566-0.084c-1.588-0.456-2.137-2.356-2.846-3.851c-2.246-4.747-8.741-6.892-13.378-4.426
				c-1.427,0.769-2.703,1.9-4.291,2.264c-1.09,0.245-2.145,0.093-3.125-0.338c-0.152-0.059-0.296-0.127-0.439-0.211
				c-1.875-0.988-3.421-2.956-4.299-4.966c-2.525-5.819-2.272-13.083-5.65-18.142c-0.541-0.819-1.174-1.579-1.934-2.264
				c-2.745-2.483-6.537-3.404-10.177-4.138c-6.866-1.377-13.809-2.382-20.785-3.015c-8.691-0.794-18.117-1.267-25.33-5.76
				c2.66-4.13,5.904-7.88,9.612-11.081c0.887-0.769,1.791-1.52,2.703-2.255c3.885,0.845,7.804,1.453,11.689,1.875
				c10.777,1.166,21.715,1.267,32.551,1.005c10.861-0.262,21.715-1.115,32.466-2.686c10.642-1.546,21.174-3.835,31.444-7.019
				c1.774-0.557,3.548-1.123,5.321-1.723c0.051,0.093,0.093,0.177,0.144,0.262c0.38,0.752,0.786,1.486,1.191,2.221
				c0.802,1.487,1.545,2.99,2.238,4.527c1.436,3.218,2.584,6.588,3.454,10c0.853,3.353,1.427,6.774,1.689,10.228
				c0.127,1.731,0.186,3.48,0.177,5.22C242.875,358.212,242.428,360.104,243.07,361.473z"/>
			<path style="fill:#B3AC9D;" d="M125.842,391.734c10.961,3.242,22.594,3.531,33.995,2.727c2.729-0.192,5.496-0.456,8.042-1.456
				c2.546-1.001,4.75-2.69,6.986-4.267c4.313-3.041,8.983-5.775,14.153-6.83c1.492-0.305,3.101-0.453,4.487,0.176
				c1.09,0.495,1.924,1.422,2.613,2.401c3.524,5.004,3.884,11.695,2.408,17.635c-1.43,5.754-4.905,11.474-10.491,13.461
				c-1.992,0.708-4.128,0.9-6.24,0.988c-15.497,0.644-30.676-3.968-45.5-8.531c-5.554-1.71-11.11-3.42-16.591-5.35
				c-2.831-0.997-5.661-2.062-8.227-3.62c-5.342-3.243-11.613-10.43-12.335-16.943c-0.395-3.561,2.154-5.051,4.719-2.875
				c3.074,2.608,6.001,5.125,9.513,7.16C117.293,388.681,121.501,390.45,125.842,391.734z"/>
			<path style="fill:#CCC6BA;" d="M195.212,396.387c-0.234-0.797-0.57-1.61-1.043-2.318c-0.75-1.5-1.905-2.598-3.694-2.024
				c-0.495,0.058-0.977,0.228-1.436,0.468c-0.208,0.083-0.413,0.175-0.611,0.28c-0.289,0.152-0.567,0.324-0.837,0.508
				c-0.478,0.262-0.926,0.588-1.341,0.946c-0.198,0.037-0.392,0.137-0.561,0.317c-0.57,0.609-1.058,1.258-1.47,1.954
				c-1.297,1.842-2.191,4.105-2.011,6.309c0.24,2.945,2.493,4.999,5.382,5.287c1.476,0.147,2.881-0.291,4.073-1.081
				c0.03-0.02,0.059-0.041,0.089-0.061c0.237-0.162,0.465-0.337,0.683-0.527c0.098-0.085,0.194-0.171,0.288-0.26
				c0.082-0.079,0.165-0.155,0.244-0.238c0.458-0.472,0.857-0.995,1.185-1.533c0.471-0.607,0.846-1.285,1.093-2.046
				c0.262-0.808,0.343-1.651,0.319-2.495C195.647,398.7,195.543,397.515,195.212,396.387z"/>
			<path style="fill:#CCC6BA;" d="M186.087,390.11c-0.01-0.062-0.023-0.122-0.044-0.182c-0.128-0.365-0.268-0.6-0.522-0.893
				c-0.034-0.039-0.072-0.073-0.112-0.106c-0.134-0.109-0.271-0.23-0.424-0.314c-0.148-0.081-0.312-0.144-0.469-0.203
				c-0.053-0.02-0.106-0.036-0.161-0.048c-0.079-0.016-0.16-0.021-0.241-0.032c-0.197-0.065-0.395-0.113-0.638-0.119
				c-0.173-0.004-0.351,0.03-0.52,0.059c-0.063,0.011-0.123,0.027-0.183,0.049c-0.154,0.056-0.313,0.119-0.458,0.198
				c-0.153,0.083-0.288,0.202-0.422,0.31c-0.184,0.147-0.325,0.345-0.46,0.535c-0.032,0.045-0.061,0.093-0.086,0.142
				c-0.08,0.158-0.152,0.325-0.208,0.494c-0.019,0.057-0.031,0.114-0.041,0.173c-0.029,0.176-0.067,0.365-0.06,0.546
				c0.006,0.174,0.035,0.351,0.067,0.521c0.012,0.061,0.031,0.12,0.054,0.178c0.062,0.16,0.123,0.329,0.212,0.477
				c0.091,0.151,0.207,0.291,0.32,0.425c0.148,0.175,0.346,0.32,0.534,0.444c0.049,0.032,0.1,0.061,0.152,0.085
				c0.163,0.077,0.331,0.153,0.503,0.207c0.055,0.018,0.112,0.031,0.17,0.04c0.177,0.031,0.359,0.062,0.539,0.067
				c0.12,0.004,0.237-0.018,0.357-0.034c0.122-0.016,0.248-0.026,0.367-0.062c1.067-0.326,1.795-1.305,1.834-2.415
				C186.153,390.473,186.114,390.287,186.087,390.11z"/>
			<path style="fill:#CCC6BA;" d="M191.676,387.81c-0.055-0.13-0.11-0.26-0.165-0.391l-0.256-0.331
				c-0.11-0.085-0.221-0.171-0.331-0.256c-0.13-0.055-0.261-0.11-0.391-0.165c-0.217-0.068-0.435-0.078-0.652-0.029
				c-0.148,0-0.285,0.038-0.413,0.112c-0.203,0.066-0.378,0.179-0.527,0.338c-0.047,0.052-0.09,0.108-0.129,0.167
				c-0.144,0.158-0.242,0.343-0.292,0.556c0,0.001-0.001,0.002-0.001,0.003c0,0.001-0.001,0.003-0.002,0.005
				c-0.001,0.001-0.001,0.003-0.002,0.005c-0.076,0.2-0.077,0.641-0.001,0.842c0.001,0.003,0.002,0.006,0.003,0.009l0.001,0.004
				c0,0.001,0.001,0.001,0.001,0.002c0.055,0.13,0.11,0.26,0.165,0.39c0.077,0.118,0.163,0.229,0.257,0.332
				c0.11,0.085,0.221,0.171,0.331,0.256c0.13,0.055,0.26,0.11,0.391,0.165c0.217,0.068,0.435,0.078,0.652,0.029
				c0.148,0,0.285-0.038,0.413-0.112c0.139-0.039,0.259-0.109,0.361-0.21c0.123-0.073,0.221-0.171,0.293-0.293
				c0.101-0.102,0.171-0.222,0.21-0.361c0.102-0.195,0.149-0.405,0.141-0.63L191.676,387.81z"/>
			<path style="fill:#CCC6BA;" d="M194.647,389.633c-0.057-0.204-0.161-0.382-0.31-0.532c-0.081-0.063-0.163-0.126-0.244-0.189
				c-0.188-0.109-0.391-0.164-0.608-0.164c-0.166-0.006-0.321,0.028-0.464,0.104c-0.15,0.049-0.279,0.132-0.388,0.249
				c-0.118,0.109-0.201,0.238-0.249,0.388c-0.075,0.144-0.11,0.298-0.104,0.464c0.014,0.107,0.029,0.214,0.043,0.32
				c0.057,0.204,0.161,0.382,0.31,0.532c0.081,0.063,0.162,0.126,0.244,0.188c0.188,0.109,0.391,0.164,0.609,0.165
				c0.166,0.006,0.321-0.028,0.464-0.104c0.149-0.049,0.279-0.132,0.388-0.249c0.118-0.109,0.201-0.238,0.249-0.388
				c0.076-0.144,0.11-0.298,0.104-0.464C194.676,389.847,194.662,389.74,194.647,389.633z"/>
			<path style="fill:#CCC6BA;" d="M263.655,373.845c-0.377-0.659-0.84-1.103-1.353-1.39c-0.614-0.594-1.433-0.967-2.523-0.963
				c-0.698,0.002-1.342,0.201-1.933,0.517c-0.221-0.084-0.47-0.087-0.711,0.067c-1.393,0.891-2.427,2.091-3.214,3.456
				c-2.248,2.205-4.127,5.466-3.653,8.627c0.253,1.687,1.258,3.252,2.842,3.964c1.749,0.786,3.737,0.551,5.382-0.387
				c1.05-0.599,1.969-1.434,2.739-2.408c0.498-0.485,0.94-1.024,1.305-1.602c0.967-1.536,1.43-3.311,1.656-5.093
				C264.393,377.047,264.479,375.285,263.655,373.845z"/>
			<path style="fill:#CCC6BA;" d="M255.224,369.201c-0.077-0.276-0.217-0.515-0.419-0.718c-0.11-0.085-0.22-0.17-0.329-0.254
				c-0.254-0.147-0.528-0.221-0.821-0.222c-0.224-0.009-0.433,0.038-0.627,0.14c-0.202,0.066-0.376,0.178-0.524,0.337
				c-0.159,0.147-0.271,0.322-0.337,0.524c-0.102,0.194-0.149,0.403-0.14,0.627c0.019,0.144,0.039,0.288,0.058,0.433
				c0.077,0.276,0.217,0.515,0.419,0.718c0.11,0.085,0.22,0.17,0.329,0.255c0.254,0.147,0.528,0.221,0.822,0.222
				c0.224,0.008,0.433-0.038,0.627-0.14c0.202-0.066,0.376-0.178,0.524-0.337c0.159-0.147,0.271-0.322,0.337-0.524
				c0.102-0.194,0.149-0.403,0.14-0.627C255.263,369.49,255.244,369.345,255.224,369.201z"/>
			<path style="fill:#CCC6BA;" d="M260.644,366.889c-0.055-0.131-0.11-0.261-0.165-0.392c-0.103-0.191-0.244-0.345-0.423-0.46
				c-0.159-0.145-0.345-0.243-0.558-0.294c-0.145-0.02-0.291-0.039-0.436-0.059c-0.296,0.001-0.572,0.076-0.828,0.224
				c-0.111,0.086-0.221,0.171-0.332,0.257c-0.203,0.205-0.344,0.446-0.422,0.724c-0.002,0.013-0.003,0.026-0.005,0.038
				c-0.004,0.009-0.008,0.017-0.011,0.026c-0.001,0.003-0.002,0.005-0.003,0.008c-0.002,0.005-0.003,0.011-0.004,0.017
				c-0.001,0.003-0.001,0.006-0.002,0.009c-0.009,0.065-0.018,0.129-0.026,0.194c-0.009,0.064-0.018,0.129-0.026,0.193
				c-0.001,0.011-0.001,0.023,0,0.034c0.012,0.135,0.019,0.274,0.056,0.405c0.001,0.003,0.002,0.006,0.003,0.008
				c0.006,0.021,0.132,0.318,0.142,0.335c0.003,0.005,0.006,0.009,0.008,0.013c0.002,0.002,0.003,0.004,0.005,0.007
				c0.036,0.047,0.072,0.094,0.108,0.14c0.035,0.047,0.071,0.094,0.108,0.14c0.003,0.004,0.006,0.007,0.01,0.011
				c0.004,0.004,0.007,0.007,0.011,0.011c0.002,0.002,0.004,0.003,0.006,0.005c0.001,0.001,0.003,0.002,0.004,0.003l0.267,0.206
				c0.097,0.071,0.235,0.112,0.334,0.146c0,0,0.001,0,0.001,0c0.185,0.091,0.384,0.136,0.596,0.128
				c0.145-0.02,0.291-0.039,0.436-0.059c0.213-0.051,0.399-0.149,0.558-0.294c0.179-0.116,0.32-0.269,0.423-0.46
				c0.12-0.188,0.185-0.392,0.195-0.61C260.722,367.325,260.713,367.107,260.644,366.889z"/>
			<path style="fill:#CCC6BA;" d="M265.277,368.582c-0.01-0.214-0.073-0.414-0.191-0.599c-0.101-0.188-0.239-0.338-0.415-0.452
				c-0.155-0.142-0.338-0.238-0.548-0.288c-0.142-0.019-0.285-0.038-0.428-0.058c-0.291,0.001-0.561,0.074-0.813,0.22l-0.326,0.252
				c-0.2,0.201-0.337,0.438-0.414,0.71c-0.006,0.022-0.013,0.045-0.018,0.067c-0.078,0.308-0.079,0.563,0,0.871
				c0.002,0.01,0.005,0.019,0.007,0.029c0.01,0.039,0.02,0.077,0.031,0.116c0.133,0.51,0.555,0.922,1.06,1.061
				c0.269,0.072,0.538,0.072,0.807,0c0.257-0.072,0.481-0.202,0.67-0.391c0.028-0.029,0.057-0.057,0.086-0.086
				c0.007-0.007,0.014-0.014,0.021-0.021c0.209-0.211,0.34-0.439,0.422-0.724c0.006-0.022,0.012-0.045,0.018-0.067
				C265.315,369.01,265.325,368.796,265.277,368.582z"/>
			<path style="fill:#8E8376;" d="M203.017,379.345c-0.519-0.953-1.719-0.929-2.404-0.289c-2.281-1.185-5.305-1.489-7.61-1.655
				c-3.61-0.259-7.218,0.212-10.626,1.312c-1.751,0.455-3.453,1.079-5.079,1.887c-0.528-0.901-1.059-1.801-1.61-2.687
				c-0.83-1.335-1.911-2.428-2.827-3.692c-0.415-0.574-1.566-0.253-1.254,0.529c0.578,1.452,0.93,2.948,1.6,4.37
				c0.523,1.108,1.084,2.199,1.648,3.288c-0.514,0.352-1.021,0.714-1.512,1.099c-0.699,0.547-0.563,1.73,0,2.305
				c0.673,0.688,1.62,0.545,2.305,0c2.267-1.805,4.861-3.162,7.607-4.054c0.959-0.253,1.932-0.455,2.919-0.586
				c2.62-0.349,6.048-0.602,8.436,0.761c2.295,1.31,2.963,4.257,4.154,6.431c0.353,0.645,0.771,1.314,1.298,1.857
				c-0.021,0.283-0.034,0.567-0.028,0.855c0.043,1.988,2.965,2.015,3.127,0.097c0.794-0.275,1.424-0.947,1.665-1.854
				C205.678,386.119,204.546,382.155,203.017,379.345z M199.561,382.853c-0.207-0.377-0.424-0.745-0.662-1.099
				c0.262,0.111,0.512,0.24,0.743,0.391C199.609,382.38,199.583,382.616,199.561,382.853z"/>
			<path style="fill:#8E8376;" d="M245.15,354.116c-0.179-1.456-0.34-2.914-0.569-4.363c-0.205-1.301-0.323-2.966-1.111-4.072
				c-0.09-0.639-0.184-1.278-0.282-1.917c-0.051-0.333-0.203-0.574-0.408-0.742c-0.127-0.767-0.267-1.531-0.422-2.293
				c-0.334-1.632-3.125-1.295-2.946,0.399c0.41,3.875-0.569,7.85-2.979,10.952c-0.386,0.496-0.443,1.086-0.279,1.579
				c-0.32-0.534-0.604-1.088-0.839-1.666c-0.384-0.946-1.809-0.613-1.565,0.431c0.272,1.167,0.454,2.284,0.889,3.334
				c0.485,2.193,1.093,4.653,2.709,6.228c1.872,1.824,4.776,1.729,6.506-0.25C245.751,359.566,245.477,356.777,245.15,354.116z"/>
			<path style="fill:#8E8376;" d="M195.228,406.572c-0.545-0.421-1.478-0.453-1.958,0.117c-4.15,4.927-11.133,4.735-17.014,4.572
				c-6.071-0.168-12.133-0.669-18.145-1.534c-12.027-1.73-23.815-4.947-34.943-9.846c-3.068-1.351-6.096-2.821-9.053-4.4
				c-3.07-1.639-6.188-3.189-9.236-4.863c-0.487-0.268-1.064,0.403-0.616,0.798c2.375,2.09,4.772,3.992,7.438,5.703
				c2.615,1.679,5.379,3.146,8.174,4.499c5.73,2.774,11.714,5.028,17.812,6.847c4.937,1.473,9.96,2.641,15.03,3.554
				c0.097,0.154,0.235,0.299,0.429,0.42c3.365,2.103,7.778,2.789,11.657,3.328c3.922,0.546,7.885,0.702,11.835,0.402
				c3.837-0.291,7.721-0.922,11.4-2.073c3.02-0.945,6.232-2.552,7.574-5.601C195.916,407.807,195.861,407.061,195.228,406.572z"/>
			<path style="fill:#8E8376;" d="M258.447,389.992c0.229,0.082,0.335,0.125-0.146-0.077c-0.017-0.007-0.038-0.008-0.056-0.015
				c-0.062-0.023-0.128-0.038-0.196-0.051c-0.155-0.031-0.315-0.049-0.466-0.043c-0.507,0.02-0.997,0.231-1.455,0.43
				c-0.974,0.423-1.91,0.899-2.914,1.254c-2.049,0.723-4.191,1.177-6.36,1.313c-2.114,0.132-4.244,0.01-6.32-0.422
				c-1.043-0.217-2.077-0.486-3.087-0.826c-1.009-0.339-2.018-0.838-3.1-0.597c-0.625,0.139-0.805,0.857-0.556,1.367
				c0.485,0.995,1.629,1.421,2.6,1.801c1.045,0.409,2.121,0.745,3.216,0.987c2.204,0.487,4.485,0.705,6.742,0.62
				c2.201-0.082,4.411-0.428,6.526-1.044c1.093-0.319,2.157-0.721,3.201-1.176c1.037-0.452,2.22-0.962,2.757-2.023
				C259.121,390.917,258.927,390.289,258.447,389.992z"/>
		</g>
		<g>
			<path style="fill:#663829;" d="M271.851,291.868c2.83-9.395,2.579-19.43,0.511-28.946c-2.221-10.22-6.446-19.921-10.977-29.303
				c-3.721-7.705-7.859-15.233-12.673-22.314c0.138-0.151,0.257-0.333,0.34-0.556c3.698-9.845,3.023-21.58-3.35-30.194
				c-5.746-7.766-15.011-12.239-24.689-10.672c-4.802,0.778-10.062,3.191-12.989,7.236c-1.664-0.643-3.345-1.25-5.057-1.78
				c-20.185-6.255-41.861-4.624-61.971,1.054c-3.316,0.937-6.589,1.999-9.837,3.14c-0.851,0.01-1.671,0.345-2.463,0.703
				c-0.59,0.266-1.175,0.544-1.757,0.829c-0.327,0.123-0.655,0.24-0.981,0.364c-0.308,0.117-0.58,0.301-0.788,0.531
				c-2.02,1.048-4.066,2.223-5.883,3.588c-1.878,1.411-3.824,2.722-5.607,4.254c-1.003,0.862-1.95,1.77-2.884,2.693
				c-0.735,0.562-1.453,1.146-2.172,1.729c-1.074-0.917-2.378-1.404-3.701-1.89c-1.445-0.531-2.931-0.952-4.439-1.26
				c-2.926-0.598-5.936-0.815-8.913-0.567c-5.725,0.476-11.157,2.518-15.67,6.085c-8.372,6.617-12.479,17.854-9.124,28.157
				c1.719,5.28,5.463,10.994,10.722,13.292c0.149,0.065,0.292,0.101,0.432,0.124c-1.808,5.038-3.254,10.206-4.3,15.447
				c-3.692,18.497-3.694,40.078,7.737,56.031c8.567,11.957,21.616,18.742,35.522,22.328c-6.485,4.893-11.646,11.609-15.089,19.064
				c-3.289-5.834-11.275-8.277-17.035-4.121c-3.1,2.238-5.173,5.737-5.194,9.614c-0.022,4.04,2.069,8.014,5.129,10.589
				c1.817,1.529,3.898,2.64,6.151,3.385c1.171,0.388,2.377,0.673,3.599,0.837c0.833,0.112,1.687,0.223,2.498,0.076
				c-0.133,5.148,0.6,10.316,2.594,15.082c2.943,7.032,8.604,11.948,15.301,15.334c3.29,1.663,6.735,3.008,10.187,4.291
				c4.071,1.513,8.155,2.996,12.267,4.396c8.262,2.812,16.679,5.278,25.306,6.684c4.252,0.693,8.548,1.151,12.857,1.252
				c4.041,0.094,8.3,0.076,12.247-0.906c3.625-0.901,6.644-2.977,8.589-6.186c0.552-0.91,1.008-1.871,1.408-2.857
				c1.68-0.021,3.336-0.454,4.978-0.791c1.717-0.352,3.431-0.722,5.136-1.127c3.453-0.821,6.877-1.788,10.197-3.05
				c5.907-2.246,11.458-5.408,15.896-9.951c0.022,0.327,0.168,0.651,0.464,0.862c4.353,3.107,10.154,3.662,15.286,2.472
				c4.785-1.109,9.056-3.986,12.057-7.85c3.442-4.432,4.608-9.812,5.159-15.288c0.491-4.878,1.137-10.784-3.659-13.798
				c-5.037-3.165-11.043-0.758-15.649,2.123c-0.355-0.074-0.713-0.132-1.066-0.179c-0.326-0.043-0.652-0.086-0.978-0.129
				c0.587-0.703,0.579-1.626,0.622-2.535c0.045-0.96,0.067-1.921,0.066-2.882c-0.002-1.803-0.091-3.603-0.261-5.398
				c-0.343-3.613-0.973-7.2-1.918-10.704c-0.942-3.494-2.195-6.896-3.73-10.173c-0.764-1.63-1.602-3.226-2.517-4.777
				c-0.391-0.662-0.815-1.301-1.266-1.922c6.656-2.375,13.178-5.257,18.952-9.271C263.357,308.66,269.075,301.089,271.851,291.868z
				 M214.726,175.353c1.794-1.004,3.734-1.717,5.739-2.168c4.083-0.919,8.357-0.563,12.247,0.97
				c8.067,3.179,13.575,10.908,15.037,19.301c0.859,4.932,0.326,10.019-1.197,14.767c-5.144-7.117-11.023-13.74-17.883-19.245
				c-5.477-4.395-11.493-7.986-17.904-10.745C212.011,177.173,213.284,176.16,214.726,175.353z M73.723,230.987
				c-1.411-1.718-2.587-3.706-3.397-5.777c-1.695-4.335-2.057-9.07-0.83-13.574c2.558-9.387,10.854-16.304,20.402-17.664
				c2.849-0.406,5.815-0.352,8.65,0.129c1.518,0.258,3.016,0.629,4.479,1.111c1.016,0.335,2.002,0.823,3.013,1.189
				c-2.207,1.923-4.335,3.933-6.349,6.048c-9.076,9.529-16.067,20.911-20.816,33.167C77.009,234.208,75.217,232.807,73.723,230.987z
				 M97.61,364.564c-0.219,1.334-0.388,2.682-0.503,4.037c-1.249-0.493-2.823-0.54-4.046-0.876
				c-1.594-0.438-3.108-1.071-4.518-1.937c-2.706-1.663-4.78-4.308-5.45-7.443c-1.201-5.627,4.135-11.38,9.89-10.131
				c3.146,0.682,5.817,2.998,6.73,6.11c0.09,0.305,0.243,0.537,0.43,0.715C99.001,358.149,98.138,361.346,97.61,364.564z
				 M244.217,364.788c0.652,0.066,1.304,0.137,1.956,0.197c0.413,0.677,1.256,1.076,2.175,0.558c3.659-2.06,7.887-4.937,12.25-3.152
				c4.338,1.774,3.328,7.299,2.973,11.011c-0.438,4.582-1.319,9.168-4.003,13.007c-2.265,3.24-5.668,5.752-9.423,6.981
				c-4.966,1.626-10.128,0.843-14.941-0.909c-0.068-0.025-0.133-0.04-0.196-0.052c3.746-4.208,6.448-9.337,7.171-14.969
				c0.573-4.462-0.228-8.854-1.688-13.049c0.167,0.021,0.34,0.034,0.494,0.05c0.368,0.037,0.736,0.074,1.104,0.111
				C242.798,364.645,243.508,364.717,244.217,364.788z M234.13,324.548c0.381,0.75,0.791,1.485,1.192,2.225
				c0.802,1.48,1.55,2.988,2.238,4.525c1.44,3.219,2.589,6.585,3.459,10.002c0.854,3.354,1.428,6.773,1.686,10.224
				c0.13,1.736,0.19,3.479,0.178,5.219c-0.01,1.47-0.452,3.363,0.189,4.732c-0.275-0.036-0.55-0.073-0.825-0.109
				c-0.368-0.049-0.736-0.097-1.104-0.146c-0.153-0.02-0.319-0.057-0.473-0.062c-0.496-0.017-0.864,0.235-1.224,0.536
				c-0.657-1.573-1.386-3.114-2.151-4.613c-1.803-3.535-3.846-6.957-6.095-10.227c-2.291-3.331-4.687-6.569-7.778-9.197
				c-0.766-0.651-2.044,0.174-1.461,1.128c1.736,2.841,3.74,5.471,5.604,8.228c1.87,2.766,3.617,5.616,5.21,8.552
				c3.169,5.84,6.244,12.213,6.233,19.004c-0.02,11.922-10.107,20.845-20.33,25.108c-3.388,1.412-6.92,2.468-10.477,3.356
				c-1.822,0.454-3.655,0.863-5.492,1.247c-1.253,0.262-2.564,0.443-3.825,0.754c0.37-1.302,0.688-2.618,1.006-3.912
				c0.442-1.794,0.826-3.626,1.042-5.468c1.275-0.297,2.386-1.438,3.176-2.402c0.994-1.211,1.745-2.601,2.181-4.109
				c0.889-3.075,0.308-6.27-1.375-8.962c-1.771-2.832-4.375-4.987-6.458-7.568c-2.092-2.593-3.724-5.597-4.826-8.737
				c-0.647-1.844-1.144-3.736-1.446-5.667c-0.295-1.882-0.694-3.902-0.736-5.799c-0.022-0.972-1.625-1.287-1.776-0.24
				c-0.23,1.599-0.553,3.083-0.508,4.716c0.046,1.668,0.335,3.366,0.691,4.993c0.702,3.214,1.939,6.331,3.593,9.174
				c1.619,2.784,3.733,5.118,5.911,7.466c1.918,2.068,3.973,4.453,4.013,7.429c0.02,1.477-0.394,2.917-1.152,4.181
				c-0.323,0.54-0.713,1.011-1.152,1.452c-0.063-0.979-0.198-1.957-0.437-2.928c-0.854-3.463-3.027-6.661-6.338-8.163
				c-6.436-2.919-13.11,0.064-17.905,4.563c0.05-0.223,0.045-0.478-0.045-0.768c-0.667-2.143-1.848-4.152-2.642-6.259
				c-0.802-2.128-1.516-4.289-2.101-6.487c-0.569-2.137-1.024-4.304-1.362-6.49c-0.171-1.103-0.285-2.21-0.409-3.32
				c-0.131-1.177-0.221-2.313-1.119-3.18c-0.368-0.355-1.091-0.435-1.446,0c-1.442,1.766-0.636,4.568-0.337,6.632
				c0.344,2.376,0.827,4.731,1.443,7.052c0.6,2.258,1.316,4.491,2.185,6.661c0.861,2.153,1.717,4.655,3.136,6.51
				c0.436,0.569,1.172,0.728,1.772,0.56c-0.207,0.214-0.417,0.426-0.615,0.644c-1.259,1.385-2.407,2.867-3.531,4.363
				c-0.546,0.727-0.117,1.881,0.604,2.302c0.861,0.503,1.755,0.125,2.302-0.604c3.795-5.053,9-10.705,15.965-9.896
				c3.062,0.356,5.518,2.27,6.678,5.119c1.373,3.373,0.962,7.101,0.2,10.565c-0.732,3.324-1.474,6.888-2.987,9.96
				c-1.462,2.97-3.72,4.938-6.935,5.805c-3.495,0.943-7.295,0.934-10.888,0.886c-3.941-0.053-7.881-0.394-11.776-0.991
				c-7.972-1.221-15.773-3.372-23.427-5.881c-7.157-2.346-14.405-4.776-21.31-7.799c-6.021-2.637-11.93-6.155-15.429-11.908
				c-3.589-5.9-4.43-13.046-3.878-19.82c1.051-12.902,7.603-25.203,17.379-33.62c0.891-0.767,1.792-1.522,2.709-2.256
				c3.879,0.842,7.799,1.457,11.685,1.877c10.782,1.166,21.72,1.265,32.553,1.002c10.865-0.263,21.714-1.115,32.47-2.683
				c10.636-1.551,21.174-3.838,31.442-7.024c1.771-0.549,3.548-1.118,5.322-1.717C234.04,324.376,234.087,324.463,234.13,324.548z
				 M211.435,327.067c-20.543,4.488-41.67,5.816-62.657,5.322c-8.958-0.211-18.243-0.817-27.186-2.647
				c-0.262-0.211-0.603-0.304-0.983-0.208c-10.024-2.159-19.587-5.903-27.735-12.422c-7.089-5.671-12.308-13.082-15.147-21.715
				c-2.951-8.971-3.53-18.552-2.857-27.923c1.361-18.95,7.815-37.616,18.889-53.09c10.376-14.498,25.114-26.043,41.824-32.331
				c4.113-1.548,8.186-2.973,12.481-3.941c0.158-0.036,0.288-0.096,0.396-0.171c12.874-3.001,26.126-4.217,39.301-2.494
				c9.669,1.265,19.209,4.118,27.794,8.776c7.87,4.27,14.791,10.03,20.793,16.65c6.006,6.624,11.059,14.053,15.502,21.798
				c4.714,8.218,8.92,16.824,12.412,25.632c3.684,9.294,6.452,19.15,6.336,29.223c-0.104,9.009-2.477,18.224-8.022,25.461
				c-5.513,7.195-13.709,11.844-21.963,15.228C231.211,322.068,221.352,324.9,211.435,327.067z"/>
			<path style="fill:#663829;" d="M182.801,279.141c-0.008-0.002-0.017-0.003-0.025-0.005c-0.511-0.334-1.08-0.597-1.707-0.754
				c-1.654-0.414-3.567-0.13-4.987,0.833c-1.57,1.067-2.461,2.723-2.645,4.594c-0.17,1.724,0.409,3.437,1.554,4.729
				c1.139,1.285,2.856,1.945,4.54,2.035c3.641,0.193,6.635-3.086,6.55-6.644C186.031,281.87,184.871,279.745,182.801,279.141z"/>
			<path style="fill:#663829;" d="M246.188,265.965c-0.009-0.002-0.017-0.003-0.026-0.005c-0.511-0.334-1.08-0.597-1.707-0.754
				c-1.654-0.414-3.567-0.13-4.987,0.833c-1.571,1.067-2.461,2.723-2.645,4.594c-0.17,1.724,0.409,3.437,1.554,4.729
				c1.139,1.285,2.856,1.945,4.54,2.035c3.641,0.193,6.635-3.086,6.55-6.644C249.418,268.694,248.258,266.569,246.188,265.965z"/>
			<path style="fill:#663829;" d="M222.783,276.088c-1.241-0.313-2.523-0.096-3.742,0.209c-1.134,0.284-2.233,0.831-3.417,0.831
				c-0.357,0-0.58,0.19-0.679,0.435c-0.952,0.238-1.904,0.482-2.857,0.726c-1.242,0.319-2.483,0.638-3.724,0.956
				c-1.338,0.344-2.784,0.613-3.957,1.388c-2.135,1.412-2.529,4.016-0.883,5.963c0.752,0.89,1.73,1.633,2.629,2.367
				c1.04,0.849,2.115,1.67,3.291,2.325c2.225,1.239,4.815,1.902,7.347,1.366c2.257-0.478,4.145-2.004,5.52-3.798
				c1.501-1.958,2.621-4.405,3.384-6.746c0.285-0.876,0.376-1.824,0.084-2.681C225.718,277.82,224.385,276.493,222.783,276.088z"/>
		</g>
	</g>
</svg>
